{
	"asset":{
		"generator":"Khronos glTF Blender I/O v4.0.44",
		"version":"2.0"
	},
	"scene":0,
	"scenes":[
		{
			"name":"Scene",
			"nodes":[
				0
			]
		}
	],
	"nodes":[
		{
			"mesh":0,
			"name":"Cube",
			"scale":[
				53.36747360229492,
				53.36747360229492,
				53.36747360229492
			],
			"translation":[
				-0.2800772190093994,
				9.07876968383789,
				0.2529177665710449
			]
		}
	],
	"materials":[
		{
			"doubleSided":true,
			"name":"Material.002",
			"pbrMetallicRoughness":{
				"baseColorTexture":{
					"index":0
				},
				"metallicFactor":0,
				"roughnessFactor":0.5
			}
		}
	],
	"meshes":[
		{
			"name":"Cube",
			"primitives":[
				{
					"attributes":{
						"POSITION":0,
						"NORMAL":1,
						"TEXCOORD_0":2
					},
					"indices":3,
					"material":0
				}
			]
		}
	],
	"textures":[
		{
			"sampler":0,
			"source":0
		}
	],
	"images":[
		{
			"mimeType":"image/png",
			"name":"mossy-ground1-albedo",
			"uri":"mossy-ground1-albedo.png"
		}
	],
	"accessors":[
		{
			"bufferView":0,
			"componentType":5126,
			"count":4225,
			"max":[
				11.68959903717041,
				2.9062299728393555,
				11.902473449707031
			],
			"min":[
				-12.366960525512695,
				-1.9884347915649414,
				-11.659332275390625
			],
			"type":"VEC3"
		},
		{
			"bufferView":1,
			"componentType":5126,
			"count":4225,
			"type":"VEC3"
		},
		{
			"bufferView":2,
			"componentType":5126,
			"count":4225,
			"type":"VEC2"
		},
		{
			"bufferView":3,
			"componentType":5123,
			"count":24576,
			"type":"SCALAR"
		}
	],
	"bufferViews":[
		{
			"buffer":0,
			"byteLength":50700,
			"byteOffset":0,
			"target":34962
		},
		{
			"buffer":0,
			"byteLength":50700,
			"byteOffset":50700,
			"target":34962
		},
		{
			"buffer":0,
			"byteLength":33800,
			"byteOffset":101400,
			"target":34962
		},
		{
			"buffer":0,
			"byteLength":49152,
			"byteOffset":135200,
			"target":34963
		}
	],
	"samplers":[
		{
			"magFilter":9729,
			"minFilter":9987
		}
	],
	"buffers":[
		{
			"byteLength":184352,
			"uri":"firstMap.bin"
		}
	]
}
