{
	"asset":{
		"generator":"Khronos glTF Blender I/O v4.0.44",
		"version":"2.0"
	},
	"scene":0,
	"scenes":[
		{
			"name":"Scene",
			"nodes":[
				0
			]
		}
	],
	"nodes":[
		{
			"mesh":0,
			"name":"Cube",
			"scale":[
				10,
				10,
				10
			]
		}
	],
	"materials":[
		{
			"doubleSided":true,
			"name":"grama",
			"pbrMetallicRoughness":{
				"baseColorTexture":{
					"index":0
				},
				"metallicFactor":0,
				"roughnessFactor":0.5
			}
		}
	],
	"meshes":[
		{
			"name":"Cube",
			"primitives":[
				{
					"attributes":{
						"POSITION":0,
						"NORMAL":1,
						"TEXCOORD_0":2
					},
					"indices":3,
					"material":0
				}
			]
		}
	],
	"textures":[
		{
			"sampler":0,
			"source":0
		}
	],
	"images":[
		{
			"mimeType":"image/png",
			"name":"grama",
			"uri":"grama.png"
		}
	],
	"accessors":[
		{
			"bufferView":0,
			"componentType":5126,
			"count":529,
			"max":[
				3.913719654083252,
				0.44849205017089844,
				3.9128713607788086
			],
			"min":[
				-3.9201130867004395,
				-0.21109747886657715,
				-4.0276947021484375
			],
			"type":"VEC3"
		},
		{
			"bufferView":1,
			"componentType":5126,
			"count":529,
			"type":"VEC3"
		},
		{
			"bufferView":2,
			"componentType":5126,
			"count":529,
			"type":"VEC2"
		},
		{
			"bufferView":3,
			"componentType":5123,
			"count":2904,
			"type":"SCALAR"
		}
	],
	"bufferViews":[
		{
			"buffer":0,
			"byteLength":6348,
			"byteOffset":0,
			"target":34962
		},
		{
			"buffer":0,
			"byteLength":6348,
			"byteOffset":6348,
			"target":34962
		},
		{
			"buffer":0,
			"byteLength":4232,
			"byteOffset":12696,
			"target":34962
		},
		{
			"buffer":0,
			"byteLength":5808,
			"byteOffset":16928,
			"target":34963
		}
	],
	"samplers":[
		{
			"magFilter":9729,
			"minFilter":9987
		}
	],
	"buffers":[
		{
			"byteLength":22736,
			"uri":"firstMap.bin"
		}
	]
}
